HIERARCHY
ROOT SpineBase
{
  OFFSET 0.000000 0.000000 0.000000
  CHANNELS 6 Xposition Yposition Zposition Zrotation Xrotation Yrotation
  JOINT SpineMid
  {
    OFFSET -0.000000 31.806934 0.000000
    CHANNELS 3 Zrotation Xrotation Yrotation
    JOINT SpineShoulder
    {
      OFFSET 0.259221 23.571433 -0.548164
      CHANNELS 3 Zrotation Xrotation Yrotation
      JOINT Neck
      {
        OFFSET 0.134826 7.805816 -0.472624
        CHANNELS 3 Zrotation Xrotation Yrotation
        JOINT Head
        {
          OFFSET 4.826462 12.207205 3.494703
          CHANNELS 3 Zrotation Xrotation Yrotation
          End Site
          {
            OFFSET 0 0 0
          }
        }
      }
      JOINT ShoulderLeft
      {
        OFFSET -10.650322 -3.461944 -11.285895
        CHANNELS 3 Zrotation Xrotation Yrotation
        JOINT ElbowLeft
        {
          OFFSET -6.221368 -26.259267 -8.027922
          CHANNELS 3 Zrotation Xrotation Yrotation
          JOINT WristLeft
          {
            OFFSET 3.111378 -20.669863 -5.098145
            CHANNELS 3 Zrotation Xrotation Yrotation
            JOINT HandLeft
            {
              OFFSET 1.073835 -7.845121 1.777158
              CHANNELS 3 Zrotation Xrotation Yrotation
              JOINT HandTipLeft
              {
                OFFSET 0.498081 -7.877715 -0.669016
                CHANNELS 3 Zrotation Xrotation Yrotation
                End Site
                {
                  OFFSET 0 0 0
                }
              }
              JOINT ThumbLeft
              {
                OFFSET 4.482082 1.888549 2.087524
                CHANNELS 3 Zrotation Xrotation Yrotation
                End Site
                {
                  OFFSET 0 0 0
                }
              }
            }
          }
        }
      }
      JOINT ShoulderRight
      {
        OFFSET 11.772148 -4.286642 10.819427
        CHANNELS 3 Zrotation Xrotation Yrotation
        JOINT ElbowRight
        {
          OFFSET 2.680584 -26.352594 6.209868
          CHANNELS 3 Zrotation Xrotation Yrotation
          JOINT WristRight
          {
            OFFSET 0.792695 -26.453865 -5.410984
            CHANNELS 3 Zrotation Xrotation Yrotation
            JOINT HandRight
            {
              OFFSET -0.527485 -8.306222 0.502240
              CHANNELS 3 Zrotation Xrotation Yrotation
              JOINT HandTipRight
              {
                OFFSET -0.110989 -6.950921 -0.577598
                CHANNELS 3 Zrotation Xrotation Yrotation
                End Site
                {
                  OFFSET 0 0 0
                }
              }
              JOINT ThumbRight
              {
                OFFSET -2.092817 -2.320511 0.935379
                CHANNELS 3 Zrotation Xrotation Yrotation
                End Site
                {
                  OFFSET 0 0 0
                }
              }
            }
          }
        }
      }
    }
  }
  JOINT HipLeft
  {
    OFFSET -4.995513 1.563640 -8.210732
    CHANNELS 3 Zrotation Xrotation Yrotation
    JOINT KneeLeft
    {
      OFFSET -13.956204 -35.853590 -3.507935
      CHANNELS 3 Zrotation Xrotation Yrotation
      JOINT AnkleLeft
      {
        OFFSET -9.584359 -37.328996 5.278666
        CHANNELS 3 Zrotation Xrotation Yrotation
        JOINT FootLeft
        {
          OFFSET 0.423735 -7.748028 -6.965118
          CHANNELS 3 Zrotation Xrotation Yrotation
          End Site
          {
            OFFSET 0 0 0
          }
        }
      }
    }
  }
  JOINT HipRight
  {
    OFFSET 5.494496 0.301009 1.255493
    CHANNELS 3 Zrotation Xrotation Yrotation
    JOINT KneeRight
    {
      OFFSET -7.637077 -38.696638 2.950282
      CHANNELS 3 Zrotation Xrotation Yrotation
      JOINT AnkleRight
      {
        OFFSET -10.136701 -36.679750 10.073807
        CHANNELS 3 Zrotation Xrotation Yrotation
        JOINT FootRight
        {
          OFFSET 1.724397 -8.226669 -5.297874
          CHANNELS 3 Zrotation Xrotation Yrotation
          End Site
          {
            OFFSET 0 0 0
          }
        }
      }
    }
  }
}
MOTION
Frames: 16
Frame Time: 0.033333
-22.218240 84.532958 335.782099 0.000000 0.000000 -42.063220 -0.000000 0.000000 42.063220 -0.000000 0.000000 0.000000 -0.000000 0.000000 0.000000 0.000000 0.000000 0.000000 -0.000000 0.000000 0.000000 -0.000000 0.000000 0.000000 -0.000000 0.000000 0.000000 -0.000000 0.000000 0.000000 0.000000 0.000000 0.000000 0.000000 0.000000 0.000000 -0.000000 0.000000 0.000000 -0.000000 0.000000 0.000000 -0.000000 0.000000 0.000000 -0.000000 0.000000 0.000000 0.000000 0.000000 0.000000 0.000000 0.000000 0.000000 -0.000000 0.000000 42.063220 -0.000000 0.000000 0.000000 -0.000000 0.000000 0.000000 0.000000 0.000000 0.000000 -0.000000 0.000000 42.063220 -0.000000 0.000000 0.000000 -0.000000 0.000000 0.000000 0.000000 0.000000 0.000000
-22.346285 84.500604 335.815936 -0.053686 -0.017236 -41.968738 0.028389 0.048716 41.968718 -0.000000 0.000000 0.000000 -0.000000 0.000000 0.000000 0.000000 0.000000 0.000000 -0.925371 -0.571013 0.413420 -1.728129 -0.185553 0.127427 -1.966701 2.486628 -1.253839 4.032810 -3.604623 0.795468 0.000000 0.000000 0.000000 0.000000 0.000000 0.000000 -0.000000 0.000000 0.000000 -1.192711 -2.049532 0.161857 -2.135202 2.412108 -0.298843 2.845125 -2.062973 0.292414 0.000000 0.000000 0.000000 0.000000 0.000000 0.000000 0.028389 0.048716 41.968718 -0.000000 0.000000 0.000000 0.179034 -1.970123 -0.269767 0.000000 0.000000 0.000000 0.028389 0.048716 41.968718 -0.000000 0.000000 0.000000 -0.000000 0.000000 0.000000 0.000000 0.000000 0.000000
-22.495495 84.466788 335.845080 -0.123618 -0.050639 -41.865096 0.058265 0.120212 41.864980 -0.000000 0.000000 0.000000 -0.000000 0.000000 0.000000 0.000000 0.000000 0.000000 -1.779329 -1.062647 0.778615 -3.115767 -0.291600 0.226803 -3.997133 5.003384 -2.142567 7.790607 -6.855857 1.615141 0.000000 0.000000 0.000000 0.000000 0.000000 0.000000 -0.697534 -0.677459 -0.237225 -1.433644 -3.192123 0.507255 -3.980552 4.797046 -0.362734 5.336949 -4.027930 0.560924 0.000000 0.000000 0.000000 0.000000 0.000000 0.000000 0.058265 0.120212 41.864980 -0.000000 0.000000 0.000000 0.406983 -3.620251 -0.567049 0.000000 0.000000 0.000000 0.058265 0.120212 41.864980 -0.000000 0.000000 0.000000 0.846627 -0.673606 -0.682967 0.000000 0.000000 0.000000
-22.665871 84.431509 335.869530 -0.209746 -0.100163 -41.752446 0.089777 0.214397 41.752095 -0.000000 0.000000 0.000000 -0.000000 0.000000 0.000000 0.000000 0.000000 0.000000 -2.562150 -1.472406 1.097822 -4.194625 -0.331134 0.302625 -5.593661 7.348435 -2.666117 10.740417 -9.676844 2.327620 0.000000 0.000000 0.000000 0.000000 0.000000 0.000000 -1.020682 -0.946981 -0.344930 -1.801738 -4.493665 0.664618 -5.499571 7.126266 -0.253924 7.408690 -5.918797 0.818902 0.000000 0.000000 0.000000 0.000000 0.000000 0.000000 0.089777 0.214397 41.752095 -0.000000 0.000000 0.000000 0.685247 -4.926693 -0.890258 0.000000 0.000000 0.000000 -0.341414 0.954552 41.603775 0.352465 -1.611489 0.518703 0.607921 -0.195130 -1.290268 0.000000 0.000000 0.000000
-22.857413 84.394768 335.889286 -0.312012 -0.165758 -41.631033 0.123094 0.331172 41.630225 -0.000000 0.000000 0.000000 -0.457680 0.781537 -0.174244 0.000000 0.000000 0.000000 -3.274217 -1.798272 1.373166 -4.993306 -0.315061 0.358315 -6.318635 9.307863 -2.896154 12.387598 -11.987554 2.776389 0.000000 0.000000 0.000000 0.000000 0.000000 0.000000 -1.326344 -1.170338 -0.444610 -1.932076 -5.583737 0.770351 -6.671776 9.379768 -0.035925 9.020028 -7.751313 1.073714 0.000000 0.000000 0.000000 0.000000 0.000000 0.000000 -0.331596 1.150221 41.260273 -0.198340 -0.915539 0.374246 1.015181 -5.872465 -1.238454 0.000000 0.000000 0.000000 -0.360610 1.311145 41.451038 0.394019 -2.018434 0.654248 0.637148 -0.261729 -1.563675 0.000000 0.000000 0.000000
-23.070120 84.356564 335.904349 -0.430352 -0.247365 -41.501189 0.158403 0.470425 41.499610 -0.000000 0.000000 0.000000 -0.658349 1.033010 -0.212996 0.000000 0.000000 0.000000 -3.915958 -2.038627 1.606608 -5.535641 -0.251702 0.396420 -5.901467 10.715970 -2.940476 12.405967 -13.714843 2.832284 0.000000 0.000000 0.000000 0.000000 0.000000 0.000000 -1.614257 -1.347548 -0.535760 -1.819862 -6.453924 0.831571 -7.488934 11.542847 0.231449 10.151071 -9.533643 1.326898 0.000000 0.000000 0.000000 0.000000 0.000000 0.000000 -0.345458 1.510500 41.044587 -0.302950 -1.115249 0.460785 1.397999 -6.446551 -1.611397 0.000000 0.000000 0.000000 -0.331789 1.686305 41.298132 0.396694 -2.360380 0.769985 0.580081 -0.326041 -1.757433 0.000000 0.000000 0.000000
-23.410253 84.325819 335.853844 -0.653807 -0.295336 -41.508116 0.293907 0.654450 41.504752 0.252939 -0.960734 0.034014 -1.265565 2.382580 -0.270286 0.000000 0.000000 0.000000 -4.965749 -1.286075 1.924003 -5.588641 -0.166330 0.315536 -4.751171 12.991606 -2.518635 12.607036 -17.841303 2.520703 0.000000 0.000000 0.000000 0.000000 0.000000 0.000000 -2.199676 -0.671474 -0.648754 -0.682069 -6.929265 0.774947 -8.994633 14.784287 0.784620 11.411480 -12.443626 1.819586 0.000000 0.000000 0.000000 0.000000 0.000000 0.000000 -0.052653 1.910575 41.000405 -0.562605 -1.175334 0.506334 2.007092 -6.320672 -2.143775 0.000000 0.000000 0.000000 -0.023444 2.151604 41.306831 0.241399 -2.585118 0.848090 0.305766 -0.347879 -1.794195 0.000000 0.000000 0.000000
-23.731507 84.280895 335.828689 -0.851705 -0.391579 -41.348971 0.872749 0.123156 41.345960 0.325022 -0.320905 0.024515 -1.635719 3.013102 -0.285887 0.000000 0.000000 0.000000 -5.543560 -1.169228 2.152724 -5.790388 -0.086211 0.316314 -0.467695 12.225086 -2.578539 7.396210 -18.199976 1.147940 0.000000 0.000000 0.000000 0.000000 0.000000 0.000000 -2.480053 -0.514564 -0.725790 0.457448 -7.168839 0.711343 -10.480440 17.099478 1.273689 13.650589 -14.658124 2.422985 0.000000 0.000000 0.000000 0.000000 0.000000 0.000000 0.112508 2.350461 40.767435 -0.772447 -1.306488 0.574479 0.551952 -8.203657 -0.968160 0.000000 0.000000 0.000000 0.268354 2.600001 41.154478 0.056297 -2.721362 0.894930 -0.179773 -0.386918 -1.644769 0.000000 0.000000 0.000000
-23.974229 84.223689 335.864061 -0.977061 -0.568916 -41.189779 0.908923 0.161827 41.182819 0.348928 -0.367179 0.024400 -1.816378 3.550400 -0.328491 0.000000 0.000000 0.000000 -5.862564 -0.887573 2.270646 -5.710812 0.174244 0.366355 3.272900 10.781255 -2.577246 1.730840 -15.948813 0.065949 0.000000 0.000000 0.000000 0.000000 0.000000 0.000000 -2.657008 -0.280138 -0.766862 0.896677 -7.291006 0.721411 -8.696773 18.176905 1.047902 11.781542 -15.656606 2.347403 0.000000 0.000000 0.000000 0.000000 0.000000 0.000000 0.021089 2.827142 40.502449 -0.882194 -1.555397 0.678684 1.515881 -7.277784 -1.764393 0.000000 0.000000 0.000000 0.331866 3.031044 40.983852 -0.040218 -2.889245 0.948878 -0.318425 -0.465831 -1.694838 0.000000 0.000000 0.000000
-24.130467 84.171944 335.919736 -1.028896 -0.751055 -40.946627 0.883671 0.189892 40.936858 0.365484 -0.395326 0.024212 -1.999532 3.932091 -0.332698 0.000000 0.000000 0.000000 -5.934077 -0.499259 2.276746 -5.237468 0.585016 0.414589 4.848657 10.184640 -2.332860 -1.564263 -13.326030 -0.359219 0.000000 0.000000 0.000000 0.000000 0.000000 0.000000 -2.736364 0.050700 -0.766032 1.279949 -7.351936 0.691749 -7.808268 18.395253 0.907087 11.426467 -15.141414 2.316914 0.000000 0.000000 0.000000 0.000000 0.000000 0.000000 -0.178379 3.219897 40.161000 -0.922012 -1.810670 0.779266 6.782638 -0.439578 -6.097904 0.000000 0.000000 0.000000 0.243164 3.346830 40.721181 -0.024755 -3.069755 1.013259 -0.486044 -0.538352 -1.714516 0.000000 0.000000 0.000000
-24.220663 84.130392 335.983512 -1.061373 -0.909254 -40.647785 0.827411 0.225214 40.635561 0.376639 -0.394791 0.023040 -2.026578 4.063567 -0.323089 0.000000 0.000000 0.000000 -5.944978 -0.139624 2.250071 -4.368717 0.876995 0.344158 5.865970 9.924271 -1.892796 -3.835100 -11.371541 -0.745511 0.000000 0.000000 0.000000 0.000000 0.000000 0.000000 -2.742558 0.352193 -0.745421 1.306195 -7.421817 0.689160 -5.657673 18.307023 0.501300 7.189141 -15.418431 1.740855 0.000000 0.000000 0.000000 0.000000 0.000000 0.000000 -0.387838 3.544821 39.776635 -0.922709 -2.047108 0.869505 10.753646 3.732583 -9.493267 0.000000 0.000000 0.000000 0.082756 3.562629 40.398904 0.102857 -3.219612 1.081142 -0.734594 -0.673635 -1.687142 0.000000 0.000000 0.000000
-24.259894 84.120421 336.065444 -1.074704 -1.031264 -40.334416 0.741444 0.262476 40.320330 0.376829 -0.367236 0.020519 -1.946054 3.970095 -0.292775 0.000000 0.000000 0.000000 -5.659613 0.242117 2.107742 -3.477157 1.089567 0.297680 6.075958 10.372469 -1.316255 -3.734184 -9.805445 -0.947983 0.000000 0.000000 0.000000 0.000000 0.000000 0.000000 -2.714650 0.462436 -0.735328 1.278107 -7.212259 0.704978 -2.984816 17.142177 0.015274 2.895347 -15.266798 1.074015 0.000000 0.000000 0.000000 0.000000 0.000000 0.000000 -0.660037 3.802263 39.379697 -0.845036 -2.308521 0.963491 13.258675 5.677431 -11.684222 0.000000 0.000000 0.000000 -0.099249 3.707615 40.061488 0.261241 -3.373995 1.150261 -0.937936 -0.798660 -1.676145 0.000000 0.000000 0.000000
-24.289402 84.121297 336.104329 -1.052308 -1.110231 -40.243785 0.685338 0.254964 40.229587 0.367121 -0.357702 0.018987 -2.127789 4.076628 -0.244233 0.000000 0.000000 0.000000 -5.388035 0.703207 1.955009 -2.437687 1.248409 0.218824 6.286339 10.570725 -0.725178 -3.212527 -8.896482 -1.236880 0.000000 0.000000 0.000000 0.000000 0.000000 0.000000 -2.610176 0.575975 -0.708112 1.008502 -6.830411 0.731032 0.132338 15.947439 -0.500288 -1.327093 -14.485977 0.490068 0.000000 0.000000 0.000000 0.000000 0.000000 0.000000 -0.887838 3.909589 39.247453 -0.241655 -3.103809 1.277986 14.026417 7.686818 -13.134181 0.000000 0.000000 0.000000 -0.236578 3.768823 39.959189 0.394373 -3.492870 1.211902 -1.320192 -0.801912 -1.533268 0.000000 0.000000 0.000000
-24.269828 84.138824 336.116793 -1.006063 -1.124363 -40.219296 0.639366 0.220607 40.206185 0.347566 -0.339283 0.017253 -2.015452 4.000832 -0.245075 0.000000 0.000000 0.000000 -4.969639 1.088888 1.753863 -1.462347 1.399481 0.153577 5.552570 10.849521 -0.232067 -1.184224 -10.022012 -1.379652 0.000000 0.000000 0.000000 0.000000 0.000000 0.000000 -2.573971 0.650710 -0.695517 0.837981 -6.710467 0.755509 3.558533 14.031579 -0.894592 -7.424184 -11.803108 -0.135282 0.000000 0.000000 0.000000 0.000000 0.000000 0.000000 -0.990701 3.871272 39.222856 -0.202702 -3.143723 1.283138 14.149734 8.277697 -13.214776 0.000000 0.000000 0.000000 -0.364088 3.685421 39.929993 0.585045 -3.534308 1.260759 -1.521087 -0.813445 -1.499385 0.000000 0.000000 0.000000
-24.213872 84.185538 336.102195 -0.907757 -1.124366 -40.389308 0.604838 0.166010 40.379238 0.312078 -0.306597 0.016386 -2.150241 4.027944 -0.215010 0.000000 0.000000 0.000000 -4.521705 1.472032 1.528733 -0.545976 1.389671 0.077250 3.929418 11.970195 0.246154 1.141943 -13.256073 -1.392601 0.000000 0.000000 0.000000 0.000000 0.000000 0.000000 -2.411200 0.668700 -0.657021 0.713432 -6.443224 0.721099 5.035131 12.869405 -0.989192 -10.651241 -10.967262 -0.359293 0.000000 0.000000 0.000000 0.000000 0.000000 0.000000 -1.083193 3.724981 39.421290 -0.161438 -3.114961 1.261441 13.029974 7.980576 -12.203036 0.000000 0.000000 0.000000 -0.600077 3.559882 40.086430 0.826452 -3.658325 1.335712 -1.799156 -0.696436 -1.405408 0.000000 0.000000 0.000000
-24.083280 84.227901 336.157177 -0.813612 -1.150618 -40.559659 0.585856 0.122180 40.552654 0.277136 -0.275952 0.016277 -2.194845 3.993345 -0.186022 0.000000 0.000000 0.000000 -4.006714 1.823691 1.287001 -0.045289 1.350845 0.087971 3.451721 11.573400 0.524854 3.110741 -14.893441 -1.285585 0.000000 0.000000 0.000000 0.000000 0.000000 0.000000 -2.273708 0.766692 -0.614730 0.593186 -6.243767 0.683518 6.387641 11.332013 -0.993059 -12.324339 -10.580429 -0.431990 0.000000 0.000000 0.000000 0.000000 0.000000 0.000000 -1.287557 3.605330 39.605644 -0.022928 -3.150777 1.264498 10.794592 6.971895 -10.221970 0.000000 0.000000 0.000000 -0.899137 3.551083 40.226629 0.942292 -3.879367 1.395877 -1.995650 -0.547092 -1.257334 0.000000 0.000000 0.000000
